<?xml version="1.0" ?><!DOCTYPE svg  PUBLIC '-//W3C//DTD SVG 1.1//EN'  'http://www.w3.org/Graphics/SVG/1.1/DTD/svg11.dtd'><svg xmlns="http://www.w3.org/2000/svg" xmlns:xlink="http://www.w3.org/1999/xlink" xml:space="preserve" width="512px" height="512px" style="shape-rendering:geometricPrecision; text-rendering:geometricPrecision; image-rendering:optimizeQuality; fill-rule:evenodd; clip-rule:evenodd" viewBox="0 0 512 512"><defs><style type="text/css">
   <![CDATA[
    .fil2 {fill:#574A56}
    .fil0 {fill:#615260}
    .fil3 {fill:#CB8B61}
    .fil1 {fill:#E29A6C}
   ]]>
  </style></defs><g id="Layer_x0020_1"><g id="_280429640"><path id="_280430624" class="fil0" d="M485.581 376.651c-0.499608,0 -1.09961,-0.100394 -1.6004,-0.199607 -2.59961,-0.700396 -4.39962,-3.1004 -4.39962,-5.80041 0.300001,-45.9001 -12,-90.4999 -36.4997,-132.698 -19.0997,-32.8005 -39.4997,-53.2998 -45.3001,-58.8002 -1.2,-1.09961 -1.9004,-2.70001 -1.9004,-4.30041 0,-1.6004 0.600002,-3.19962 1.80001,-4.30041l37.0997 -37.0997c1.09961,-1.09961 2.70001,-1.80001 4.30041,-1.80001 1.6004,0 3.19962,0.700396 4.30041,1.9004 26.8997,28.2001 46.2001,58.3006 57.3002,89.4995 8.89963,25.0997 12.6,50.8986 10.9996,76.7991 -2.8004,44.1001 -20.1001,72.6994 -20.8005,73.8994 -1.3004,1.9004 -3.30001,2.9008 -5.29962,2.9008zm-148.5 -260.599c0,0 0,0 0,0 -1.69961,0 -3.19962,-0.700396 -4.39962,-1.9004 -5.50041,-5.80041 -25.9997,-26.2005 -58.8002,-45.3001 -42.0993,-24.4997 -86.6991,-36.7997 -132.599,-36.4997 0,0 0,0 0,0 -2.70001,0 -4.99962,-1.80001 -5.80041,-4.39962 -0.700396,-2.59961 0.300001,-5.40002 2.59961,-6.79963 1.2,-0.700396 29.8005,-18.0001 73.8994,-20.8005 25.9005,-1.69961 51.6994,1.99961 76.7991,10.9996 31.2001,11.1 61.3006,30.4005 89.4995,57.3002 1.2,1.09961 1.80001,2.70001 1.9004,4.30041 0,1.6004 -0.600002,3.19962 -1.80001,4.30041l-37.0997 37.0997c-1.09843,1.09961 -2.59843,1.69961 -4.19883,1.69961z"/><path id="_280430648" class="fil1" d="M439.481 113.552c-1.5,0 -3.1004,-0.600002 -4.20001,-1.80001l-35.1001 -35.1001c-1.09961,-1.09961 -1.80001,-2.70001 -1.80001,-4.20001 0,-1.5 0.600002,-3.1004 1.80001,-4.20001l21.4005 -21.4005c5.80041,-5.80041 13.5,-9.00003 21.7997,-9.00003 8.20042,0 16.0004,3.19962 21.7997,9.00003 12,12 12,31.6005 0,43.6005l-21.4005 21.4005c-1.2,1.09961 -2.70001,1.69961 -4.29923,1.69961zm-398.499 398.499c-1.6004,0 -3.1004,-0.600002 -4.20001,-1.80001l-35.1001 -34.9997c-2.29961,-2.29961 -2.29961,-6.10041 0,-8.50042l332.598 -332.699c1.09961,-1.09961 2.70001,-1.80001 4.20001,-1.80001 1.6004,0 3.1004,0.600002 4.20001,1.80001l35.1001 35.1001c2.29961,2.29961 2.29961,6.10041 0,8.50042l-332.598 332.598c-1.09961,1.2 -2.59961,1.80001 -4.20001,1.80001z"/><path id="_280430336" class="fil2" d="M388.481 187.752c-5.50041,0 -10.9996,-2.10001 -15.1997,-6.30002l-42.7005 -42.7005c-4.09962,-4.09962 -6.30002,-9.49964 -6.30002,-15.1997 0,-5.80041 2.2004,-11.2004 6.30002,-15.1997l43.9005 -43.9005c4.09962,-4.09962 9.49964,-6.30002 15.1997,-6.30002 0,0 0,0 0,0 5.80041,0 11.2004,2.2004 15.1997,6.30002l42.7005 42.7005c8.40003,8.40003 8.40003,22.0997 0,30.4997l-43.9005 43.9005c-4.20001,4.09962 -9.70042,6.19963 -15.1997,6.19963z"/><g><polygon id="_280430096" class="fil3" points="290.381,265.052 246.844,221.514 255.343,213.012 298.881,256.552 "/><polygon id="_280429616" class="fil3" points="207.282,348.151 163.758,304.626 172.257,296.125 215.782,339.651 "/><polygon id="_280429856" class="fil3" points="124.181,431.251 80.6695,387.739 89.1688,379.237 132.682,422.751 "/></g></g></g></svg>